:SAMPLES-PER-SECOND 30
:FULLY-SPECIFIED
:DEGREES
184
root  15.0373 39.2295 -0.133148 -179.312 -64.7239 175.466
RightUpLeg  -3.21177 -9.87571 -15.6394
RightLeg  36.1598 0.488419 0.118157
RightFoot  -7.84582 -0.391167 11.0377
RightToes  2.21189e-009 0 -3.6325e-017
Spine  11.7735 1.88307 1.21183
Spine1  4.90895 3.13543 -6.59437
HEad  -14.9111 14.6732 -11.0944
LeftShoulder1  -0.339649 4.51589 -27.3617
LeftArm  -4.96218 8.93791 -42.1456
LeftForeArm  25.4521 -30.5513 -5.24881
LeftHand  -0.165366 -0.165422 3.53487
RightShoulder  -0.441926 -4.85761 25.7487
RightArm  16.9875 -0.856196 52.2652
RightForeArm  10.8622 31.2764 6.25426
RightHand  -0.634733 6.23759 -6.65606
LeftUpLeg  -9.36087 6.47254 -1.36115
LeftLeg  16.851 -3.98274 -1.53934
LeftFoot  -1.7218 -0.529942 6.41378
LeftToes  -3.01956e-010 3.07132e-011 1.04116e-011
185
root  15.1762 39.2081 -0.538719 -178.39 -65.5659 174.484
RightUpLeg  -1.30537 -5.43164 -16.2408
RightLeg  30.4325 0.635357 0.169102
RightFoot  -7.69254 -0.384953 10.4664
RightToes  2.21189e-009 0 -3.6325e-017
Spine  11.6126 1.74572 1.24046
Spine1  4.68329 3.02364 -6.69987
HEad  -15.0991 14.2397 -11.5654
LeftShoulder1  -0.337437 4.50945 -27.3533
LeftArm  -5.83093 8.80486 -42.0167
LeftForeArm  25.5004 -31.6593 -5.51053
LeftHand  -0.192412 0.503307 4.53414
RightShoulder  -0.428039 -4.81404 25.7536
RightArm  16.9203 -0.887905 52.309
RightForeArm  11.1863 31.8935 6.39139
RightHand  -0.6094 6.05098 -6.50189
LeftUpLeg  -9.28875 6.36361 -1.12788
LeftLeg  16.6717 -4.78196 -1.72768
LeftFoot  -1.73143 -0.484983 5.88982
LeftToes  -3.01956e-010 3.07132e-011 1.04116e-011
186
root  15.3943 39.1582 -0.971639 -177.03 -66.5887 173.11
RightUpLeg  0.331688 -1.15984 -16.4283
RightLeg  25.5936 0.695666 0.147692
RightFoot  -6.70955 -0.464377 10.3022
RightToes  2.21189e-009 0 -3.6325e-017
Spine  11.3245 1.63282 1.50577
Spine1  4.71398 3.04465 -7.08921
HEad  -15.493 13.6507 -11.6273
LeftShoulder1  -0.294335 4.38598 -27.1657
LeftArm  -6.37848 8.17473 -41.9938
LeftForeArm  25.3365 -31.8694 -5.57145
LeftHand  -0.227042 0.00356893 4.95456
RightShoulder  -0.44391 -4.86301 25.7677
RightArm  16.9172 -0.917055 52.5176
RightForeArm  11.0379 31.6931 6.34949
RightHand  -0.639373 5.94298 -6.86369
LeftUpLeg  -9.52041 5.96064 -0.997895
LeftLeg  16.6197 -5.51114 -1.83563
LeftFoot  -1.57071 -0.446083 5.32615
LeftToes  -3.01956e-010 3.07132e-011 1.04116e-011
187
root  15.6917 39.0611 -1.46628 -175.27 -67.6932 171.319
RightUpLeg  1.83048 1.77441 -16.3876
RightLeg  22.2567 0.597321 0.0540635
RightFoot  -7.80499 -0.455768 13.1146
RightToes  2.21189e-009 0 -3.6325e-017
Spine  11.2944 1.63553 1.42614
Spine1  4.37048 3.0616 -7.28253
HEad  -15.4319 13.1219 -11.8238
LeftShoulder1  -0.298597 4.39981 -27.1156
LeftArm  -6.60721 7.68833 -41.7664
LeftForeArm  24.9516 -31.8794 -5.59575
LeftHand  -0.222473 0.496748 5.2742
RightShoulder  -0.422721 -4.79927 25.7073
RightArm  17.3656 -1.12656 52.646
RightForeArm  10.4774 30.8997 6.18266
RightHand  -0.621237 6.15888 -6.5582
LeftUpLeg  -10.1328 5.41824 -0.855397
LeftLeg  17.1321 -6.23173 -1.9785
LeftFoot  -1.49943 -0.38419 4.56384
LeftToes  -3.01956e-010 3.07132e-011 1.04116e-011
188
root  16.1098 38.9264 -1.97277 -173.377 -68.6244 169.475
RightUpLeg  2.64055 3.00612 -16.0446
RightLeg  20.9782 0.717324 0.095855
RightFoot  -10.6152 -0.167563 14.9828
RightToes  2.21189e-009 0 -3.6325e-017
Spine  11.2344 1.67959 1.4387
Spine1  4.50585 3.15003 -7.55071
HEad  -15.9129 12.997 -12.535
LeftShoulder1  -0.348984 4.54372 -27.3643
LeftArm  -7.41207 7.03903 -41.6073
LeftForeArm  25.5446 -31.8577 -5.55702
LeftHand  -0.242068 -0.0826669 5.19474
RightShoulder  -0.416403 -4.78059 25.6797
RightArm  18.1472 -0.810224 52.7425
RightForeArm  9.96926 29.6635 5.90841
RightHand  -0.5634 5.78406 -6.16306
LeftUpLeg  -11.1205 4.86574 -0.585714
LeftLeg  17.8225 -6.84576 -2.16352
LeftFoot  -1.3863 -0.306803 3.6183
LeftToes  -3.01956e-010 3.07132e-011 1.04116e-011
189
root  16.5584 38.8393 -2.47578 -172.083 -69.4009 168.235
RightUpLeg  3.32443 2.45131 -15.3659
RightLeg  19.8387 0.253271 -0.106494
RightFoot  -12.7418 0.0985909 15.4675
RightToes  2.21189e-009 0 -3.6325e-017
Spine  11.4405 1.61023 2.14327
Spine1  4.23007 3.27575 -8.11327
HEad  -16.554 13.6939 -12.9445
LeftShoulder1  -0.329812 4.48501 -27.4147
LeftArm  -8.17033 7.44923 -41.1987
LeftForeArm  25.7007 -32.514 -5.70884
LeftHand  -0.197408 1.14892 5.27451
RightShoulder  -0.433715 -4.81554 26.1567
RightArm  20.0902 -0.36498 52.3625
RightForeArm  8.59588 28.0365 5.59628
RightHand  -0.632888 6.11151 -6.70731
LeftUpLeg  -11.8268 4.21446 -0.0332457
LeftLeg  17.9231 -7.16269 -2.18995
LeftFoot  -0.882569 -0.241632 2.70173
LeftToes  -3.01956e-010 3.07132e-011 1.04116e-011
190
root  17.0228 38.8392 -2.96665 -171.744 -70.0311 167.684
RightUpLeg  4.01877 0.579244 -14.5743
RightLeg  18.7444 0.288469 -0.0949091
RightFoot  -13.9047 0.196093 12.8984
RightToes  2.21189e-009 0 -3.6325e-017
Spine  11.2914 1.56969 3.21046
Spine1  5.00232 3.47578 -8.09746
HEad  -17.0991 13.5289 -13.6982
LeftShoulder1  -0.309816 4.42937 -27.2767
LeftArm  -8.98214 8.0148 -41.3518
LeftForeArm  25.9792 -33.0118 -5.81626
LeftHand  -0.258496 0.142397 5.76174
RightShoulder  -0.437875 -4.83933 25.8797
RightArm  21.3387 0.140228 52.6799
RightForeArm  7.72176 26.3499 5.25525
RightHand  -0.605656 5.84641 -6.57141
LeftUpLeg  -11.6507 3.51377 0.793667
LeftLeg  16.8449 -7.29873 -1.99037
LeftFoot  0.0826101 -0.15835 1.58136
LeftToes  -3.01956e-010 3.07132e-011 1.04116e-011
191
root  17.5392 38.8683 -3.44004 -172.035 -70.9692 167.898
RightUpLeg  4.47449 -2.44738 -13.7518
RightLeg  17.7908 1.44333 0.263423
RightFoot  -14.3001 0.157163 9.82274
RightToes  2.21189e-009 0 -3.6325e-017
Spine  11.4828 1.3711 4.56141
Spine1  5.13708 3.4438 -7.68311
HEad  -16.8782 12.8506 -14.074
LeftShoulder1  -0.336782 4.50611 -27.4167
LeftArm  -9.32372 8.64202 -41.2802
LeftForeArm  26.0991 -33.16 -5.84658
LeftHand  -0.231925 0.15255 5.17203
RightShoulder  -0.398764 -4.72448 25.7073
RightArm  22.0102 0.220621 52.5502
RightForeArm  7.1419 24.5762 4.88566
RightHand  -0.576606 6.23367 -6.08019
LeftUpLeg  -11.4564 2.79804 1.89134
LeftLeg  15.2541 -7.72893 -1.7751
LeftFoot  1.37382 -0.0654088 0.512658
LeftToes  -3.01956e-010 3.07132e-011 1.04116e-011
192
root  18.0959 38.8815 -3.9157 -173.267 -71.6451 169.108
RightUpLeg  4.86283 -5.03962 -12.5677
RightLeg  16.6771 3.00918 0.479032
RightFoot  -14.7792 0.143547 8.10846
RightToes  2.21189e-009 0 -3.6325e-017
Spine  11.75 1.44292 6.14914
Spine1  5.30127 3.66087 -7.24133
HEad  -16.8602 11.6765 -14.0837
LeftShoulder1  -0.353597 4.53163 -28.2009
LeftArm  -8.90777 9.13372 -40.7329
LeftForeArm  26.3638 -33.326 -5.87294
LeftHand  -0.224602 0.352545 5.18337
RightShoulder  -0.444174 -4.86039 25.8455
RightArm  22.3955 0.0232126 51.604
RightForeArm  6.31396 23.3617 4.68263
RightHand  -0.574693 6.16995 -6.09748
LeftUpLeg  -11.3619 2.39758 3.25996
LeftLeg  13.719 -8.2482 -1.44165
LeftFoot  2.7039 0.0473135 -0.518468
LeftToes  -3.01956e-010 3.07132e-011 1.04116e-011
193
root  18.6897 38.9109 -4.37878 -174.454 -72.4692 170.693
RightUpLeg  4.65448 -6.91311 -10.9426
RightLeg  15.6937 3.75713 0.365017
RightFoot  -14.9881 0.112702 6.72209
RightToes  2.21189e-009 0 -3.6325e-017
Spine  11.7645 1.34774 7.78499
Spine1  5.48645 3.69022 -6.92372
HEad  -17.3418 11.9154 -14.346
LeftShoulder1  -0.446715 4.78454 -28.7173
LeftArm  -8.19289 9.67351 -40.4731
LeftForeArm  26.2849 -33.2665 -5.86252
LeftHand  -0.212742 0.150896 4.75075
RightShoulder  -0.473499 -4.94532 25.991
RightArm  22.4901 -0.0110529 50.6026
RightForeArm  5.44349 21.934 4.6669
RightHand  -0.591673 5.76753 -6.46537
LeftUpLeg  -11.5659 2.78195 4.55297
LeftLeg  11.67 -9.54925 -1.04328
LeftFoot  4.47688 0.154867 -1.3076
LeftToes  -3.01956e-010 3.07132e-011 1.04116e-011
194
root  19.2638 38.9659 -4.83778 -174.838 -73.2992 171.481
RightUpLeg  4.07558 -8.13643 -9.45693
RightLeg  15.178 3.57125 0.193367
RightFoot  -14.8924 0.0680914 5.44329
RightToes  2.21189e-009 0 -3.6325e-017
Spine  11.7535 1.29425 8.60216
Spine1  5.30988 3.54445 -6.19993
HEad  -17.1932 11.7865 -13.4785
LeftShoulder1  -0.455158 4.80683 -28.7616
LeftArm  -7.91911 11.0972 -40.6644
LeftForeArm  26.6608 -33.1741 -5.81774
LeftHand  -0.19423 0.0972028 4.23907
RightShoulder  -0.443545 -4.85255 25.9717
RightArm  21.6681 -0.25178 49.682
RightForeArm  5.20123 19.6215 4.99908
RightHand  -0.620349 6.50078 -6.37585
LeftUpLeg  -11.3881 3.50918 5.31328
LeftLeg  8.71483 -11.0039 -0.185261
LeftFoot  6.61739 0.289582 -2.08588
LeftToes  -3.01956e-010 3.07132e-011 1.04116e-011
